<?xml version="1.0" encoding="UTF-8"?>
<svg width="128px" height="128px" viewBox="0 0 128 128" version="1.1" xmlns="http://www.w3.org/2000/svg" xmlns:xlink="http://www.w3.org/1999/xlink">
    <title>D75BB520-8CFF-43D9-ABB8-74DBDE10427A</title>
    <g id="----/experiences" stroke="none" stroke-width="1" fill="none" fill-rule="evenodd">
        <g id="assets" transform="translate(-192.000000, -32.000000)">
            <g id="create-expereince-illustration-fresh" transform="translate(192.000000, 32.000000)">
                <rect id="Rectangle" fill-opacity="0" fill="#FFFFFF" x="0" y="0" width="128" height="128"></rect>
                <path d="M96.7872958,104.822638 L94.3424615,105.956831 L94.3424615,105.956831 L92.7131475,106.705647 L92.7131475,106.705647 L91.113582,107.432912 L91.113582,107.432912 L89.5419126,108.13738 L89.5419126,108.13738 L87.996287,108.817808 C80.5857179,112.046445 74.0228564,114.389102 67.3665118,115.213815 C58.5715564,116.274954 49.6160902,114.729779 40.7187705,111.802018 C31.748602,108.854737 22.8171608,104.597343 14.7887574,97.5525561 C6.74093503,90.580242 -0.403849558,80.8205355 0.0177668695,71.37937 C0.207447503,66.234085 2.64088714,61.1615829 5.7899655,55.8648629 L6.40799036,54.8368117 L6.40799036,54.8368117 L7.04142542,53.8026823 L7.04142542,53.8026823 L8.01508621,52.239045 L8.01508621,52.239045 L10.3535787,48.5241147 L10.3535787,48.5241147 L11.02777,47.4434672 L11.02777,47.4434672 L11.7001364,46.3533918 C11.8119086,46.1709004 11.9235022,45.9879961 12.0348659,45.8046692 L12.6998786,44.6995547 L12.6998786,44.6995547 L13.3569111,43.583816 L13.3569111,43.583816 L14.0035013,42.4569745 C14.1102593,42.2682158 14.2164797,42.0789745 14.3221111,41.8892407 C14.5126371,41.5482136 14.7011612,41.2055541 14.8878808,40.8615785 L15.4428238,39.8260202 L15.4428238,39.8260202 L15.9881253,38.7844638 L15.9881253,38.7844638 L16.5249702,37.7388074 L16.5249702,37.7388074 L17.316974,36.1667876 L17.316974,36.1667876 L19.8901802,30.9731924 L19.8901802,30.9731924 L20.6575062,29.4537306 L20.6575062,29.4537306 L21.1715717,28.4565894 C21.2574992,28.2915865 21.3435681,28.1272038 21.4298032,27.9634806 L21.9494046,26.9893728 L21.9494046,26.9893728 L22.4741781,26.0329933 C25.2888688,20.9829523 28.3747965,16.7703033 32.5409827,14.6908205 C38.009102,11.9614994 45.3143888,12.8660049 52.6291524,15.0734021 L53.6265073,15.3822676 C53.7926857,15.4350182 53.9588261,15.4883871 54.124907,15.5423468 L55.120507,15.872977 C55.2862642,15.9291908 55.451919,15.9859408 55.61745,16.0431996 L56.608978,16.3926392 C56.7739278,16.4518237 56.9387108,16.5114623 57.1033056,16.5715277 L58.0884444,16.9368213 L58.0884444,16.9368213 L59.0680363,17.3110425 L59.0680363,17.3110425 L60.0410515,17.6928778 L60.0410515,17.6928778 L61.0064601,18.0810138 L61.0064601,18.0810138 L61.9632323,18.474137 L61.9632323,18.474137 L63.3799442,19.0702997 L63.3799442,19.0702997 C68.2504813,21.1521153 72.6684127,23.2711778 77.1015043,25.4437884 L82.4584282,28.0776673 L82.4584282,28.0776673 L85.1984797,29.4158401 C87.5083195,30.5372083 89.8921143,31.6744087 92.4083347,32.8294788 L98.2106976,35.4301811 L98.2106976,35.4301811 L99.9936737,36.2418652 L99.9936737,36.2418652 L101.186111,36.7944763 L101.186111,36.7944763 L102.378944,37.3575542 L102.378944,37.3575542 L103.569918,37.9321927 C110.903884,41.5136909 118.003045,45.8170226 122.486235,51.9964834 C129.179335,61.4021336 129.899385,75.0330034 123.985145,84.8666468 C120.123886,91.3797547 113.372304,96.2020231 106.200588,100.129947 L105.094265,100.727295 L105.094265,100.727295 L103.983312,101.311175 C103.797879,101.407402 103.612336,101.503094 103.426724,101.598266 L102.312573,102.163153 L102.312573,102.163153 L101.198789,102.716184 L101.198789,102.716184 L100.087371,103.258004 L100.087371,103.258004 L98.4290503,104.051121 L98.4290503,104.051121 L96.7872958,104.822638 L96.7872958,104.822638 Z" id="blob1" fill="#F5F6FA" fill-rule="nonzero" transform="translate(64.000000, 64.274492) rotate(-180.000000) translate(-64.000000, -64.274492) "></path>
                <path d="M32.666672,47.3333344 C33.034256,47.3347984 33.3318752,47.6324224 33.3333333,48.0000064 L33.3333333,48.0000064 L33.3333333,52.0000002 C33.331864,52.3671495 33.0338187,52.6640032 32.6666667,52.6640002 L32.6666667,52.6640002 L30.6666666,52.6640002 C29.930288,52.6640002 29.3333332,53.2609548 29.3333333,53.9973335 L29.3333333,53.9973335 L29.3333333,97.3333344 L29.3333333,97.3333344 L29.3394369,97.461743 C29.4040457,98.1378763 29.9736044,98.6666666 30.6666666,98.6666666 L30.6666666,98.6666666 L47.8586667,98.6666666 C48.0595067,98.6678706 48.2492808,98.7588448 48.376,98.9146666 L48.376,98.9146666 L48.4325099,98.9955867 C48.5159427,99.1363007 48.5450927,99.3040966 48.512,99.4666666 L48.512,99.4666666 L48.1386723,101.333334 C48.0145608,101.968346 47.9902688,102.618832 48.066672,103.261333 L48.066672,103.261333 L48.0699463,103.300718 L48.0699463,103.300718 L48.0708718,103.340227 C48.0685438,103.706936 47.7693811,104.002327 47.4026718,104.000014 L47.4026718,104.000014 L29.3333384,104.000014 C26.3878184,104.000014 24.0000051,101.612187 24.0000051,98.6666669 L24.0000051,98.6666669 L24.0000051,52.6666678 L24.0000051,52.6666678 L24.0044537,52.4468282 C24.1197443,49.603252 26.4614564,47.3333344 29.3333384,47.3333344 L29.3333384,47.3333344 Z M56.0850507,93.45293 C56.6051227,92.9316054 57.4493441,92.9305921 57.9706667,93.4506667 L57.9706667,93.4506667 L63.8773334,99.3546659 C64.0388129,99.5158206 64.1562403,99.7157139 64.2183841,99.9352233 C64.4189707,100.643757 64.0072001,101.380745 63.2986667,101.581333 L63.2986667,101.581333 L55.0320001,103.943999 C54.7928801,104.012227 54.5394454,104.012227 54.3003254,103.943999 C53.5922062,103.741954 53.1819534,103.004119 53.3840001,102.295999 L53.3840001,102.295999 L55.7466667,94.0293327 C55.8086934,93.811586 55.925147,93.613218 56.0850507,93.45293 Z M72.1706667,75.2746666 C72.6913334,74.7541574 73.5353334,74.7541574 74.0560001,75.2746667 L74.0560001,75.2746667 L82.0560002,83.2746663 C82.5765094,83.795333 82.5765094,84.639333 82.0560001,85.1599996 L82.0560001,85.1599996 L68.6960001,98.5199996 C68.1753335,99.0405088 67.3313335,99.0405088 66.8106668,98.5199994 L66.8106668,98.5199994 L58.8106669,90.5199995 C58.8098714,90.519206 58.8090769,90.5184116 58.8082834,90.5176161 C58.2882426,89.9962588 58.2893092,89.1520401 58.8106666,88.6320001 L58.8106666,88.6320001 Z M76.1300784,71.3174722 C78.8731723,68.704685 83.2146637,68.7117125 85.9493334,71.3786768 L85.9493334,71.3786768 L85.949795,71.3791383 C88.6794933,74.10936 88.6790933,78.5347467 85.9493333,81.264 L85.9493333,81.264 L85.8301808,81.3679129 C85.5418405,81.5959408 85.1839763,81.7218294 84.8133333,81.7226667 L84.8133333,81.7226667 L84.6754597,81.7190421 C84.4016929,81.6961903 84.1422627,81.5806606 83.9413333,81.3893333 L83.9413333,81.3893333 L75.9413333,73.3893333 C75.4208241,72.8686666 75.4208241,72.0246666 75.9413334,71.5039999 L75.9413334,71.5039999 Z M69.3333334,47.3306667 C72.2788507,47.3306667 74.6666667,49.71848 74.6666667,52.664 L74.6666667,52.664 L74.6666667,65.4266667 C74.6665307,65.6554853 74.5499691,65.8685104 74.3573333,65.992 L74.3573333,65.992 L73.9911166,66.2281079 C73.3884072,66.6327886 72.8244454,67.0929208 72.3066631,67.6026697 L72.3066631,67.6026697 L70.4719973,69.4373356 C70.346632,69.5630172 70.1763192,69.63351 69.9988026,69.6331926 C69.6306133,69.6325302 69.3326728,69.3335196 69.3333334,68.9653302 L69.3333334,68.9653302 L69.3333334,54.0000001 C69.3333334,53.2636214 68.7363786,52.6666667 68,52.6666668 L68,52.6666668 L66,52.6666668 C65.6318107,52.6666668 65.3333334,52.3681894 65.3333334,52.0000001 L65.3333334,52.0000001 L65.3333334,48 C65.3333334,47.631376 65.6313787,47.3321353 66,47.3306667 L66,47.3306667 Z M49.2883253,39.997013 C52.9834719,39.9854467 55.9883821,42.9715 56.0000053,46.6666467 L56.0000053,46.6666467 L56.0000053,47.3333343 L60.666672,47.3333343 C61.034256,47.3347983 61.3318752,47.6324223 61.3333333,48.0000063 L61.3333333,48.0000063 L61.3333333,56 C61.331864,56.3671493 61.0338186,56.664 60.6666666,56.664 L60.6666666,56.664 L38.0000084,56.664 C37.6328591,56.664 37.3348118,56.3671414 37.3333444,55.9999921 L37.3333444,55.9999921 L37.3333444,47.9999943 C37.3333444,47.6313703 37.6313898,47.3321295 38.0000111,47.3306609 L38.0000111,47.3306609 L42.6666777,47.3306609 L42.6668005,46.6374886 C42.7242617,43.6876507 44.6782564,41.0952503 47.5226511,40.2399943 L47.5226511,40.2399943 L47.8698266,40.1537123 C48.3353883,40.0511401 48.8109173,39.9985416 49.2883253,39.997013 Z M49.3333261,44.0000011 C48.2260933,44.0014802 47.3318616,44.8981069 47.3333368,46.0026749 C47.334816,47.1072429 48.2314427,48.0014746 49.3360107,48.0000011 C50.4405787,47.9985202 51.3348104,47.1018936 51.3333368,45.9973256 L51.3333368,45.9973256 L51.3276617,45.8482172 C51.2500672,44.8143957 50.3866963,44.0000011 49.3333261,44.0000011 L49.3333261,44.0000011 Z" id="Combined-Shape" fill="#008296" fill-rule="nonzero"></path>
            </g>
        </g>
    </g>
</svg>