<?xml version="1.0" encoding="UTF-8"?>
<svg width="128px" height="128px" viewBox="0 0 128 128" version="1.1" xmlns="http://www.w3.org/2000/svg" xmlns:xlink="http://www.w3.org/1999/xlink">
    <title>85B4F03E-56C6-49F7-AB90-D911C520381F</title>
    <g id="----/experiences" stroke="none" stroke-width="1" fill="none" fill-rule="evenodd">
        <g id="assets" transform="translate(-32.000000, -32.000000)">
            <g id="create-expereince-illustration-template" transform="translate(32.000000, 32.000000)">
                <rect id="Rectangle" fill-opacity="0" fill="#FFFFFF" x="0" y="0" width="128" height="128"></rect>
                <path d="M105.618045,19.1057003 C112.776193,25.5389722 115.675696,36.7745456 119.481293,46.9228055 C123.196281,57.1616748 127.817364,66.40384 127.998583,76.008443 C128.089192,85.5224367 123.830547,95.4894776 116.6724,102.103968 C109.604862,108.809069 99.7284302,112.161619 89.9426082,114.426855 C80.1567862,116.601482 70.3709642,117.688796 61.8536747,114.970512 C53.3363851,112.342838 45.9970187,106.000175 36.3924156,99.2044656 C26.6972031,92.4087558 14.7367539,85.1599988 7.30677799,73.5619875 C-0.123197971,62.0545858 -3.11331025,46.1073203 4.22605625,36.9557645 C11.6560322,27.8042088 29.5060964,25.5389722 43.0975158,22.0958126 C56.7795447,18.5620436 66.2029289,13.940961 76.6230171,12.4912095 C87.0431053,11.0414581 98.4598977,12.6724285 105.618045,19.1057003 Z" id="blob2" fill="#F5F6FA" fill-rule="nonzero"></path>
                <path d="M75.6666667,39.9999992 L22.3333333,39.9999992 L22.3333331,39.9999992 C19.3878131,39.9999992 16.9999998,42.387816 16.9999998,45.3333333 C16.9999998,45.3333333 16.9999998,45.3333333 16.9999998,45.3333333 L16.9999998,98.6666667 L16.9999998,98.6666659 C16.9999998,101.612186 19.3878131,103.999999 22.3333331,103.999999 L75.6666664,103.999999 L75.6666662,103.999999 C78.6121862,103.999999 80.9999998,101.612186 80.9999998,98.6666659 L80.9999998,45.3333325 L80.9999998,45.3333325 C80.9999998,42.3878125 78.6121835,39.9999992 75.6666662,39.9999992 L75.6666667,39.9999992 Z M23.6666667,61.3333332 L45,61.3333332 L44.9999999,61.3333332 C45.7363786,61.3333332 46.3333332,61.930288 46.3333332,62.6666667 L46.3333332,76 L46.3333332,76 C46.3333332,76.7363787 45.7363786,77.3333332 44.9999999,77.3333332 L23.6666666,77.3333332 L23.6666666,77.3333332 C22.9302879,77.3333332 22.3333332,76.7363787 22.3333332,76 C22.3333332,76 22.3333332,76 22.3333332,76 L22.3333332,62.6666667 L22.3333332,62.6666666 C22.3333332,61.9302879 22.9302879,61.3333332 23.6666666,61.3333332 L23.6666667,61.3333332 Z M53,61.3333332 L74.3333333,61.3333332 L74.3333333,61.3333332 C75.0697119,61.3333332 75.6666666,61.930288 75.6666666,62.6666667 L75.6666666,76 L75.6666666,76 C75.6666666,76.7363787 75.0697119,77.3333332 74.3333333,77.3333332 L52.9999999,77.3333332 L52.9999999,77.3333332 C52.2636212,77.3333332 51.6666666,76.7363787 51.6666666,76 C51.6666666,76 51.6666666,76 51.6666666,76 L51.6666666,62.6666667 L51.6666666,62.6666666 C51.6666666,61.9302879 52.2636212,61.3333332 52.9999999,61.3333332 L53,61.3333332 Z M75.6666667,46.6666667 L75.6666667,54.6666667 L75.6666667,54.6666667 C75.6666667,55.4030453 75.069712,56 74.3333333,56 L23.6666667,56 L23.6666666,56 C22.9302879,56 22.3333333,55.4030453 22.3333333,54.6666667 C22.3333333,54.6666667 22.3333333,54.6666667 22.3333333,54.6666667 L22.3333333,46.6666667 L22.3333333,46.6666665 C22.3333333,45.9302879 22.9302879,45.3333332 23.6666666,45.3333332 L74.3333333,45.3333332 L74.3333333,45.3333332 C75.0697119,45.3333332 75.6666667,45.9302879 75.6666667,46.6666665 L75.6666667,46.6666667 Z M23.6666667,82.6666666 L45,82.6666666 L44.9999999,82.6666666 C45.7363786,82.6666666 46.3333332,83.2636213 46.3333332,84 L46.3333332,97.3333333 L46.3333332,97.3333333 C46.3333332,98.069712 45.7363786,98.6666666 44.9999999,98.6666666 L23.6666666,98.6666666 L23.6666666,98.6666666 C22.9302879,98.6666666 22.3333332,98.069712 22.3333332,97.3333333 C22.3333332,97.3333333 22.3333332,97.3333333 22.3333332,97.3333333 L22.3333332,84 L22.3333332,83.9999999 C22.3333332,83.2636212 22.9302879,82.6666666 23.6666666,82.6666666 L23.6666667,82.6666666 Z M51.6666666,97.3333333 L51.6666666,84 L51.6666666,84.0000002 C51.6666666,83.2636215 52.2636213,82.6666669 53,82.6666669 L74.3333333,82.6666669 L74.3333333,82.6666669 C75.0697119,82.6666669 75.6666666,83.2636215 75.6666666,84.0000002 L75.6666666,97.3333335 L75.6666666,97.3333335 C75.6666666,98.0697122 75.0697119,98.6666669 74.3333333,98.6666669 L52.9999999,98.6666669 L52.9999999,98.6666669 C52.2636213,98.6666669 51.6666666,98.0697122 51.6666666,97.3333335 L51.6666666,97.3333333 Z" id="Shape" fill="#008296" fill-rule="nonzero"></path>
            </g>
        </g>
    </g>
</svg>