<svg height="34" width="127" xmlns="http://www.w3.org/2000/svg"><path d="M7.047 16.053c.146 0 .276-.15.333-.333h-.667c.057.183.19.333.334.333zm32 16l-1.55-3.57a.157.157 0 0 0-.107-.09.14.14 0 0 0-.137.06l-1.486 3.59c-.067.147-.184.334-.334.334h-.14v.24h1.194v-.25h-.114a.193.193 0 0 1-.156-.077.117.117 0 0 1 0-.11l.333-.847h1.333l.367.847c.02.039.02.085 0 .123a.153.153 0 0 1-.12.064h-.173v.24h1.52v-.24h-.107c-.137 0-.237-.1-.323-.307zm-2.334-1.15l.49-1.123.484 1.123zM0 17.267c0 6.78 5.827 13.51 13.853 16l.204.063.206-.063c8.017-2.497 13.834-9.224 13.834-16V0H0zM.697.697H27.4v16.57c0 6.396-5.58 12.923-13.333 15.333C6.273 30.19.697 23.667.697 17.267zM7.047 15c-.144 0-.277.15-.334.333h.667C7.333 15.16 7.193 15 7.047 15zm-1.38 9.46h16.75c-2.04-.973-3.367-2.487-3.917-5.96 3.473.55 5 1.877 5.96 3.917V5.667c-.973 2.04-2.487 3.366-5.96 3.916.55-3.473 1.877-5 3.917-5.956H5.667c2.036.97 3.363 2.493 3.916 5.956-3.473-.553-5-1.876-5.956-3.916v16.75c.97-2.04 2.483-3.364 5.956-3.914-.543 3.46-1.87 4.987-3.916 5.957zm8.72-13.333c0-.514.53-.824 1.236-.824 1.04 0 1.597.334 2.174.227v5.563H16a3.047 3.047 0 0 0-1.597.28zm-4.097-.614c.577.114 1.133-.226 2.173-.226.704 0 1.237.313 1.237.826v5.24a3.06 3.06 0 0 0-1.597-.28H10.29zM8.897 17.41v-1.357h-1.29a.667.667 0 0 1-.56.35.753.753 0 0 1-.667-.696h-.19a.177.177 0 0 1 0-.334h.19a.753.753 0 0 1 .667-.696c.23.004.441.126.56.323h1.29v-1.913h-1.29a.667.667 0 0 1-.56.333.753.753 0 0 1-.667-.697h-.19a.173.173 0 0 1 0-.333h.19a.75.75 0 0 1 .667-.697.667.667 0 0 1 .56.334h1.29v-1l.696-.36v6.046h2.51c.784 0 .837.02 1.334.227.19.1.399.159.613.173.215-.014.425-.073.617-.173.493-.207.546-.227 1.333-.227h2.51V10.74l.693.313v1h1.667a.523.523 0 0 1 0 1.047h-1.667V15h1.667a.523.523 0 1 1 0 1.043h-1.667V17.4H16a1.863 1.863 0 0 0-1.063.173 2.303 2.303 0 0 1-.884.227 2.277 2.277 0 0 1-.883-.23 1.877 1.877 0 0 0-1.06-.17zM34.593 2.293c.03-.633.234-1.39 1.037-1.39h1.54v6.96a.73.73 0 0 1-.667.74H36v.447h4v-.447h-.493a.733.733 0 0 1-.667-.74V.903h1.543c.804 0 1 .757 1.034 1.39v.094h.416L41.743.17a.187.187 0 0 0-.156-.17h-7.164a.183.183 0 0 0-.156.17l-.094 2.217h.417zm47.78.46l2.667 6.19v.024a.28.28 0 0 0 .213.103.22.22 0 0 0 .18-.117l2.43-6.166c.2-.41.35-.564.56-.564h.097v-.386h-1.813v.386h.203a.273.273 0 0 1 .213.117c.048.063.06.146.034.22l-1.61 4.107-1.8-4.104a.233.233 0 0 1 .02-.23.267.267 0 0 1 .196-.116h.334v-.38H81.72v.386h.097c.22 0 .386.16.556.53zM80.86 8.667h-.127c-.38 0-.55-.194-.55-.637V2.863c0-.436.177-.64.55-.64h.127v-.386h-2.697v.386h.127c.4 0 .58.197.58.64v5.16c0 .447-.173.637-.58.637h-.127v.39h2.697zm14.603-1.69h-.413l-.02.07c-.283.896-.763 1.296-1.553 1.296H91.71a.247.247 0 0 1-.253-.253V5.593h1.916c.334 0 .417.354.417.564V6.3h.4V4.16h-.4v.143c0 .217-.113.564-.417.564h-1.916V2.503h2.076c.5 0 .85.41.89 1.04v.094h.377l-.133-1.8h-5.234v.386h.144c.37 0 .536.197.536.64v5.16c0 .447-.163.637-.536.637h-.144v.39h5.377zM99 8.667h-.143c-.38 0-.55-.197-.55-.637V5.813h.31l2.456 3.237h1.737v-.383h-.143c-.197 0-.354-.187-.52-.384l-2.04-2.666c.926-.334 1.533-1.037 1.523-1.817a1.757 1.757 0 0 0-.51-1.333c-.533-.497-1.487-.704-2.91-.624h-1.943v.384h.173c.36 0 .533.206.533.636v5.164c0 .44-.163.636-.533.636h-.173v.387H99zm-.7-6.097a1.14 1.14 0 0 1 .493-.08 1.363 1.363 0 0 1 1.43 1.313 1.407 1.407 0 0 1-1.43 1.374H98.3zm13.883 6.097h-.143c-.38 0-.55-.197-.55-.637V2.863c0-.436.177-.64.55-.64h.143v-.386h-2.726v.386h.173c.367 0 .533.197.533.64v5.16c0 .447-.16.637-.533.637h-.173v.387h2.726zM7.047 12.04c-.144 0-.277.15-.334.35h.667c-.047-.2-.187-.35-.333-.35zm63.59-9.64c.09.1.163.187.246.283.084.097.12.144.197.23v5.334c0 .286-.27.416-.52.416h-.17v.404h2.153v-.42H72.4c-.273 0-.55-.144-.55-.417V3.847l4.46 5.17.03.033h.29V2.667a.477.477 0 0 1 .533-.43h.144V1.84H75.17v.387h.163a.463.463 0 0 1 .514.44v3.726l-3.93-4.553h-1.94v.387h.1c.273 0 .436.026.56.173zM56.79 6.97h-.413l-.02.07c-.267.897-.744 1.297-1.554 1.297h-1.766a.25.25 0 0 1-.254-.254v-2.49h1.934c.276 0 .4.29.4.564V6.3h.403V4.16h-.403v.143c0 .234-.124.564-.4.564h-1.934V2.503h2.08c.51 0 .85.4.887 1.04v.094h.373l-.133-1.8h-5.24v.386h.143c.374 0 .547.204.547.64v5.16c0 .444-.17.637-.547.637h-.143v.39h5.39zm47.9-1.637l.51.307c.62.37 1.333.79 1.597 1.167.373.5.293.966-.237 1.426a1.147 1.147 0 0 1-1.28.144 1.98 1.98 0 0 1-1.1-1.807v-.097h-.403v2.58h.38l.02-.073a.393.393 0 0 1 .216-.277.27.27 0 0 1 .244.03 3.06 3.06 0 0 0 1.426.374c.48.011.95-.139 1.334-.427A1.93 1.93 0 0 0 108 6.23c-.413-.79-1.46-1.377-2.403-1.863a1.277 1.277 0 0 1-.74-1 .95.95 0 0 1 .476-.817 1.2 1.2 0 0 1 1.21.057c.565.332.911.938.91 1.593v.1h.37V1.84h-.356v.08a.26.26 0 0 1-.11.2.53.53 0 0 1-.414-.053c-1.06-.48-1.866-.414-2.55.21a1.977 1.977 0 0 0-.623 1.623c.062.597.404 1.128.92 1.433zM61.507 1.187V5.98c0 1.877 1.473 3.187 3.583 3.187 2.05 0 3.48-1.25 3.48-3.04V.98c0-.353.16-.52.507-.52h.39V0h-2.74v.46h.436a.457.457 0 0 1 .504.52v5.147c0 1.47-1.26 2.136-2.434 2.136-1.173 0-2.063-.92-2.063-2.24V1.187a.733.733 0 0 1 .697-.727h.216V0H60.61v.46h.2c.39.014.699.336.697.727zm-54.46 11.9c.146 0 .276-.15.333-.334h-.667c.057.184.19.334.334.334zm86.833 4.726l-.147-.08a1.267 1.267 0 0 1-.753-1.026c.01-.33.2-.628.493-.777.368-.205.82-.19 1.174.037.575.335.928.95.926 1.616v.084h.4V15.19h-.383v.08a.3.3 0 0 1-.133.227.453.453 0 0 1-.374-.047c-1.036-.497-1.88-.433-2.58.193a2 2 0 0 0-.603 1.627c.07.605.426 1.14.957 1.44.17.107.353.217.54.333.633.377 1.29.767 1.563 1.147.357.493.28.973-.233 1.43a1.173 1.173 0 0 1-1.294.127 1.98 1.98 0 0 1-1.103-1.79v-.097h-.403v2.55h.386v-.063a.37.37 0 0 1 .19-.27.293.293 0 0 1 .274.026c.455.238.96.367 1.473.377.465.01.92-.137 1.29-.417a1.923 1.923 0 0 0 .603-2.446c-.403-.78-1.433-1.347-2.263-1.804zm9.097 2.547c-.287.93-.767 1.333-1.554 1.333h-1.63c-.133 0-.27-.173-.27-.333v-5.117c0-.463.174-.666.564-.666h.14v-.387h-2.724v.387h.164c.36 0 .536.216.536.666v5.117c0 .583-.306.667-.536.667h-.157v.373h5.273l.634-2.107H103zm-11.69 11.703L89.74 28.49a.157.157 0 0 0-.11-.09.143.143 0 0 0-.137.06L88 32.043c-.07.147-.187.334-.333.334h-.144v.24h1.197v-.25h-.117a.193.193 0 0 1-.153-.077.107.107 0 0 1 0-.11l.343-.847h1.334l.366.847a.127.127 0 0 1 0 .123.153.153 0 0 1-.12.064H90.2v.24h1.52v-.24h-.107c-.136 0-.236-.1-.326-.304zm-2.334-1.153l.49-1.123.484 1.123zm-3.533-9.333V17.2l4.447 5.167.026.033h.29V16a.477.477 0 0 1 .52-.433h.157v-.377h-2.12v.387h.14c.27 0 .55.163.55.433v3.75l-3.927-4.537-.03-.033h-1.936v.387h.1c.296 0 .45.05.543.176l.103.11c.12.127.224.237.37.417v5.303c0 .297-.276.43-.533.43h-.157v.387H86.1V22h-.143c-.264 0-.534-.12-.534-.417zm-2.61 7.136h.11c.137 0 .293.04.293.354V32c0 .247-.086.353-.293.353h-.11v.24h1.573v-.226h-.09c-.213 0-.303-.107-.303-.354v-2.94c0-.333.173-.353.303-.353h.09v-.24H82.81zm27.427-7.246l-2.717-6.27a.267.267 0 0 0-.177-.154.25.25 0 0 0-.226.104l-2.604 6.286c-.123.264-.333.577-.633.577h-.213v.387h2.063v-.38h-.187a.357.357 0 0 1-.283-.144.213.213 0 0 1-.023-.203l.636-1.5h2.357l.667 1.497a.23.23 0 0 1-.024.226.27.27 0 0 1-.223.124h-.317v.386h2.637v-.386h-.17c-.223 0-.407-.177-.56-.544zm-4.104-2l.884-2.03.876 2.03zm18.93-17.227h.27a.167.167 0 0 1 .134.093.243.243 0 0 1 0 .23l-1.524 2.597-1.666-2.55a.26.26 0 0 1 0-.263.207.207 0 0 1 .173-.107h.26v-.403h-2.667v.403h.1c.174 0 .407.057.667.513L122.917 6v2.017c0 .463-.16.666-.55.666h-.144v.387h2.757v-.403h-.143c-.407 0-.564-.177-.564-.624V5.96l1.897-3.237a.887.887 0 0 1 .71-.483h.1v-.403h-1.917v.403zm-2.396 12.953H119.9v.39h.157c.23 0 .536.067.536.667v5.113c0 .454-.166.667-.536.667h-.157v.387h3.333a3.623 3.623 0 0 0 3.714-3.607 3.503 3.503 0 0 0-.9-2.5c-.714-.79-1.864-1.167-3.38-1.117zm3.03 3.584c0 1.89-1.107 2.973-3.037 2.973a2.167 2.167 0 0 1-.59-.063v-5.84a2.22 2.22 0 0 1 .577-.074c1-.026 1.783.254 2.31.834.501.61.767 1.38.75 2.17zm-8.967-3.2h.097c.27 0 .55.163.55.43v3.753l-3.907-4.537-.03-.033h-1.937v.387h.097c.287 0 .44.046.533.173l.104.117c.12.123.22.233.37.413v5.303c0 .284-.27.43-.537.43h-.14v.387h2.123V22h-.13c-.273 0-.546-.133-.546-.43V17.2l4.443 5.167.03.033h.29V16a.47.47 0 0 1 .527-.423h.17v-.387h-2.09zm2.57-13.74h-5.793a.157.157 0 0 0-.144.14l-.063 1.72h.367v-.094c.04-.7.296-1.04.783-1.04h1.313v5.504c0 .416-.173.593-.58.593h-.126v.39h2.696v-.383h-.126c-.397 0-.55-.167-.55-.594v-5.51h1.3c.303 0 .713.107.77 1.04v.094h.37l-.077-1.717a.157.157 0 0 0-.14-.143zM38.48 13.263a4.29 4.29 0 0 0-2.867 1.057c-.88.8-1.366 2-1.44 3.557 0 2.666 1.81 4.596 4.304 4.596 2.493 0 4.306-1.933 4.306-4.596 0-2.664-1.783-4.577-4.303-4.614zm0 8.487h-.033a2 2 0 0 1-1.407-.597c-.69-.666-1.09-1.873-1.093-3.276 0-.88.173-3.754 2.53-3.874.926.05 2.486.577 2.54 3.774C41 20.133 40 21.75 38.477 21.75zm44.31-1.417l-.023.07c-.29.92-.754 1.314-1.554 1.314h-1.766a.25.25 0 0 1-.254-.27v-2.504h1.917c.293 0 .447.294.447.58v.144h.373v-2.154h-.373v.154c0 .27-.14.563-.447.563h-1.917v-2.333h2.08c.507 0 .847.4.887 1.04V17h.36l-.13-1.813h-5.217v.386h.13c.367 0 .547.214.547.667v5.15c0 .437-.173.637-.547.637h-.13v.373h5.36l.667-2.08zM46.937 2.223h.143c.383 0 .563.204.563.64V5h-2.806V2.863c0-.43.176-.64.536-.64h.144V1.84h-2.714v.383h.144c.383 0 .533.18.533.64v5.16c0 .464-.143.637-.533.637h-.144v.39h2.714v-.383h-.144c-.37 0-.536-.197-.536-.637V5.71h2.806v2.313c0 .447-.17.637-.563.637h-.143v.39h2.73v-.383h-.17c-.377 0-.537-.19-.537-.637V2.863c0-.443.167-.64.537-.64h.17V1.84h-2.74zm3.923 27.75l-.077-.043a.717.717 0 0 1-.426-.577.507.507 0 0 1 .276-.433.643.643 0 0 1 .667.02c.325.19.524.537.523.913v.064h.247V28.48h-.233v.053a.17.17 0 0 1-.07.124.257.257 0 0 1-.207-.027c-.593-.283-1.077-.247-1.48.11-.246.246-.369.59-.333.937.042.347.246.653.55.826l.333.19c.31.167.59.383.83.64a.543.543 0 0 1-.13.8.667.667 0 0 1-.73.074 1.117 1.117 0 0 1-.62-1v-.064h-.25v1.477h.237v-.05a.2.2 0 0 1 .103-.147.157.157 0 0 1 .147 0c.26.137.549.211.843.217.267.004.529-.08.743-.24a1.11 1.11 0 0 0 .334-1.407c-.21-.433-.804-.76-1.277-1.02zm-7.137-14.78v.387h.144c.38 0 .546.207.546.667v5.146c0 .44-.166.637-.546.637h-.144v.373h2.727v-.373h-.173c-.374 0-.534-.187-.534-.623v-2.46h1.947c.38 0 .4.483.4.58v.14h.39v-2.15h-.39v.15c0 .096-.02.566-.4.566h-1.947v-2.36h2.417c.49 0 .85.42.887 1.04v.094h.36l-.134-1.814zm15.12 13.287H55.54a.1.1 0 0 0-.09.087l-.037 1h.224v-.06c.023-.394.166-.587.436-.587h.74v3.127c0 .23-.096.333-.333.333h-.083v.24h1.556v-.253h-.083c-.22 0-.303-.09-.303-.334V28.91h.73c.186 0 .4.067.43.587v.06h.23l-.044-1a.1.1 0 0 0-.07-.077zm-13.486.24h.173a.197.197 0 0 1 .213.21v2.333a1 1 0 0 1-1.076.954.913.913 0 0 1-.9-1V29.04a.333.333 0 0 1 .28-.333h.09v-.24h-1.53v.266h.066c.17.015.299.163.287.334v2.153c0 .857.667 1.457 1.647 1.457s1.593-.557 1.593-1.38v-2.334c0-.093.033-.21.193-.21h.19v-.24h-1.22zm20.113 3.433l-1.137-1.506c.478-.13.823-.544.864-1.037a1 1 0 0 0-.297-.77c-.303-.287-.85-.403-1.667-.36h-1.11v.24h.107c.197 0 .293.117.293.353V32c0 .313-.156.353-.293.353h-.107v.24h1.544v-.226h-.09c-.214 0-.304-.107-.304-.354v-1.25h.16l1.4 1.844h1v-.24h-.09c-.076 0-.18-.104-.273-.214zm-1.913-1.773h-.27v-1.467a.867.867 0 0 1 .27-.043.767.767 0 0 1 .803.74.79.79 0 0 1-.803.77zm9.193 1.667l-1.547-3.57a.157.157 0 0 0-.11-.09.143.143 0 0 0-.136.06l-1.484 3.583c-.07.147-.186.333-.333.333h-.143v.24h1.196v-.236h-.116a.193.193 0 0 1-.154-.077.107.107 0 0 1 0-.11l.33-.847h1.334l.366.847a.127.127 0 0 1 0 .123.153.153 0 0 1-.12.064h-.173v.24h1.52v-.24h-.107c-.133 0-.233-.1-.323-.307zm-2.333-1.15l.49-1.124.483 1.124zm5.686-10.564l-.02.07c-.286.907-.766 1.314-1.553 1.314h-1.75a.27.27 0 0 1-.287-.27v-2.504h1.947c.263 0 .417.297.417.58v.144h.373v-2.154h-.373v.154c0 .27-.144.563-.417.563h-1.947v-2.333h2.08c.53 0 .877.4.904 1.04V17h.36l-.134-1.813H70.47v.386h.143c.38 0 .55.2.55.667v5.15c0 .44-.17.637-.55.637h-.143v.373h5.397l.633-2.067zm3.314 11.114c-.164.526-.434.76-.877.76h-.93c-.07 0-.143-.097-.143-.187v-2.93c0-.26.093-.37.313-.37h.09v-.24h-1.573v.24h.1c.073 0 .296 0 .296.37V32c0 .333-.17.36-.296.36h-.1v.24h3.036l.367-1.22h-.253zm-17.59-13.51c-.057-3.694-2.907-4.667-4.39-4.667-2.49.017-4.297 1.957-4.297 4.61 0 2.333 1.38 4.143 3.433 4.547 1.334 1.353 3.054 2.036 5.15 2.036h.1v-.43h-.093A3.363 3.363 0 0 1 59 22.24c1.723-.613 2.827-2.24 2.827-4.303zm-4.354 3.81c-1.536 0-2.533-1.52-2.533-3.87 0-1.51.37-2.607 1.06-3.264A2.17 2.17 0 0 1 57.42 14h.017c1.273 0 2.556 1.2 2.556 3.873.007 1.927-.776 3.874-2.52 3.874zm11.817-6.17h.333v-.387H67.5v.387h.29a.36.36 0 0 1 .39.386v4.104c0 1.103-.973 1.666-1.933 1.666s-1.58-.713-1.58-1.753v-3.823a.577.577 0 0 1 .503-.58h.143v-.387h-2.666v.387h.096a.57.57 0 0 1 .52.58v3.78c0 1.493 1.184 2.536 2.88 2.536 1.697 0 2.774-.966 2.774-2.406v-4.104c.016-.25.143-.386.373-.386z" fill="#51247a"/></svg>