<?xml version="1.0" encoding="UTF-8"?>
<svg width="123px" height="99px" viewBox="0 0 123 99" version="1.1" xmlns="http://www.w3.org/2000/svg" xmlns:xlink="http://www.w3.org/1999/xlink">
    <title>4910C39B-5A53-484C-B059-1DB81F595407</title>
    <g id="----/experiences" stroke="none" stroke-width="1" fill="none" fill-rule="evenodd">
        <g id="assets" transform="translate(-320.000000, -210.000000)" fill="#FFFFFF" fill-rule="nonzero">
            <path d="M413.006542,298.644868 L410.657209,299.739809 L410.657209,299.739809 L409.09154,300.462711 L409.09154,300.462711 L407.554458,301.164806 L407.554458,301.164806 L406.044182,301.844895 L406.044182,301.844895 L404.558932,302.501775 C397.437838,305.618676 391.131339,307.880259 384.735007,308.676431 C376.283605,309.700846 367.677962,308.209146 359.128194,305.382708 C350.508422,302.537426 341.925865,298.42737 334.211072,291.626387 C326.477617,284.895369 319.611926,275.473423 320.017073,266.358995 C320.199344,261.391776 322.537727,256.494822 325.563795,251.381409 L326.157678,250.388936 L326.157678,250.388936 L326.76637,249.390596 L326.76637,249.390596 L327.701997,247.881072 L327.701997,247.881072 L329.949142,244.294707 L329.949142,244.294707 L330.596998,243.251458 L330.596998,243.251458 L331.2431,242.199108 C331.350506,242.022932 331.45774,241.846358 331.564754,241.669375 L332.20379,240.602506 L332.20379,240.602506 L332.835157,239.525381 L332.835157,239.525381 L333.456489,238.437537 C333.559077,238.25531 333.661148,238.072618 333.762654,237.889451 C333.945737,237.560226 334.126897,237.229425 334.306323,236.897354 L334.839589,235.897634 L334.839589,235.897634 L335.363589,234.892123 L335.363589,234.892123 L335.879464,233.882654 L335.879464,233.882654 L336.64053,232.365038 L336.64053,232.365038 L339.11322,227.351182 L339.11322,227.351182 L339.850572,225.884305 L339.850572,225.884305 L340.344557,224.921672 C340.427128,224.76238 340.509835,224.603686 340.592702,224.445629 L341.092006,223.505233 L341.092006,223.505233 L341.596281,222.581951 C344.301022,217.706681 347.266406,213.639822 351.269851,211.632305 C356.524371,208.997439 363.544296,209.870642 370.573326,212.001646 L371.531722,212.299823 C371.691409,212.350748 371.851059,212.40227 372.010653,212.454362 L372.967362,212.77355 C373.126645,212.827818 373.285828,212.882604 373.444893,212.937882 L374.39769,213.275228 C374.556196,213.332364 374.714542,213.389939 374.872708,213.447925 L375.819365,213.800577 L375.819365,213.800577 L376.760691,214.161847 L376.760691,214.161847 L377.695698,214.530468 L377.695698,214.530468 L378.623395,214.905172 L378.623395,214.905172 L379.542794,215.28469 L379.542794,215.28469 L380.904165,215.860221 L380.904165,215.860221 C385.584447,217.869989 389.829803,219.915716 394.089727,222.013138 L399.237396,224.555864 L399.237396,224.555864 L401.870414,225.847726 C404.090026,226.930286 406.380704,228.02813 408.798634,229.143226 L414.374342,231.653924 L414.374342,231.653924 L416.087671,232.437518 L416.087671,232.437518 L417.233528,232.971004 L417.233528,232.971004 L418.379767,233.514595 L418.379767,233.514595 L419.524218,234.069347 C426.571701,237.526898 433.393551,241.681301 437.701616,247.646905 C444.133267,256.727047 444.82519,269.886184 439.141975,279.379508 C435.431547,285.667212 428.943698,290.322593 422.052127,294.114581 L420.989021,294.691255 L420.989021,294.691255 L419.921464,295.254929 C419.743274,295.347825 419.564979,295.440206 419.386618,295.532084 L418.315989,296.077422 L418.315989,296.077422 L417.245712,296.611314 L417.245712,296.611314 L416.177708,297.134383 L416.177708,297.134383 L414.584166,297.900052 L414.584166,297.900052 L413.006542,298.644868 L413.006542,298.644868 Z" id="blob1"></path>
        </g>
    </g>
</svg>